<svg width="67" height="65" fill="none" xmlns="http://www.w3.org/2000/svg"><path d="M33.145 64.482c-.3 0-.6-.225-.6-.6v-6.3c0-.3.224-.6.6-.6.3 0 .6.226.6.6v6.3c0 .3-.3.6-.6.6zm0-9.674c-.3 0-.6-.225-.6-.6v-2.775c0-.3.224-.6.6-.6.3 0 .6.225.6.6v2.775c0 .375-.3.6-.6.6zm0-6.15c-.3 0-.6-.225-.6-.6v-2.774c0-.3.224-.6.6-.6.3 0 .6.225.6.6v2.775c0 .3-.3.6-.6.6zm0-6.224c-.3 0-.6-.225-.6-.6V39.06c0-.3.224-.6.6-.6.3 0 .6.225.6.6v2.775c0 .375-.3.6-.6.6zm0-6.149c-.3 0-.6-.225-.6-.6v-6.3c0-.3.224-.6.6-.6.3 0 .6.225.6.6v6.3c0 .375-.3.6-.6.6zm11.329 11.923c-2.4 0-4.427-1.95-4.427-4.424v-4.2c0-.3.225-.6.6-.6h7.654c.3 0 .6.225.6.6v4.2c0 2.474-2.026 4.424-4.427 4.424zm-3.301-8.024v3.6c0 1.8 1.5 3.3 3.301 3.3 1.8 0 3.301-1.5 3.301-3.3v-3.6h-6.602zm-19.358 8.024c-2.4 0-4.427-1.95-4.427-4.424v-4.2c0-.3.225-.6.6-.6h7.654c.3 0 .6.225.6.6v4.2a4.386 4.386 0 01-4.427 4.424zm-3.226-8.024v3.6c0 1.8 1.5 3.3 3.301 3.3 1.8 0 3.301-1.5 3.301-3.3v-3.6H18.59z" fill="#1771E6"/><path d="M33.144 39.66c-1.275 0-2.25-.976-2.25-2.25 0-1.276 1.05-2.25 2.25-2.25a2.257 2.257 0 012.251 2.25c0 1.274-.975 2.25-2.25 2.25zm0-3.376c-.6 0-1.125.525-1.125 1.125s.525 1.125 1.125 1.125 1.126-.525 1.126-1.125-.525-1.125-1.126-1.125zm0 9.524c-1.275 0-2.25-.975-2.25-2.25 0-1.274 1.05-2.25 2.25-2.25a2.257 2.257 0 012.251 2.25c0 1.275-.975 2.25-2.25 2.25zm0-3.374c-.6 0-1.125.525-1.125 1.125s.525 1.124 1.125 1.124 1.126-.525 1.126-1.124c0-.6-.525-1.125-1.126-1.125zm0 9.599a2.257 2.257 0 01-2.25-2.25c0-1.275 1.05-2.25 2.25-2.25 1.276 0 2.251.975 2.251 2.25 0 1.2-.975 2.25-2.25 2.25zm0-3.375c-.6 0-1.125.525-1.125 1.125s.525 1.125 1.125 1.125 1.126-.525 1.126-1.125c0-.675-.525-1.125-1.126-1.125zm0 9.524c-1.275 0-2.25-.974-2.25-2.25 0-1.274 1.05-2.249 2.25-2.249 1.276 0 2.251 1.05 2.251 2.25s-.975 2.25-2.25 2.25zm0-3.374c-.6 0-1.125.525-1.125 1.125s.525 1.124 1.125 1.124 1.126-.524 1.126-1.124c0-.6-.525-1.125-1.126-1.125zm-3.001-37.644h-.15c-.15 0-.3-.15-.375-.225L19.79 1.19c-.075-.15-.15-.375 0-.6.075-.15.3-.3.525-.3h4.502c.225 0 .375.075.45.3l8.403 13.8c.15.3.075.6-.15.75l-3.002 1.875c-.15.075-.225.15-.375.15zM21.29 1.49l9.078 14.324 2.026-1.275L24.441 1.49H21.29z" fill="#1771E6"/><path d="M36.146 17.162c-.075 0-.225 0-.3-.075l-3.002-1.875c-.3-.15-.375-.525-.15-.75L41.248.665c.075-.15.3-.3.45-.3h4.352c.225 0 .375.075.525.3.075.15.075.375 0 .6L36.67 16.937a.413.413 0 01-.375.225h-.15zm-2.176-2.625l2.026 1.275L45.074 1.49h-3.001L33.97 14.537z" fill="#1771E6"/><path d="M50.852 64.482H15.438c-.6 0-1.05-.45-1.05-1.05V21.66L7.784 34.035c-.3.6-.9.975-1.576.975-.3 0-.6-.075-.825-.225l-4.427-2.4c-.9-.45-1.2-1.575-.75-2.475a22.62 22.62 0 001.125-2.325c.75-1.65 1.576-3.524 2.401-5.55C7.635 12.813 12.136 2.314 17.84 2.314c.225 0 .375.075.525.3l6.978 11.998 7.878 13.65 7.878-13.65 6.977-11.998c.075-.15.3-.3.526-.3 5.702 0 10.204 10.499 14.105 19.723 1.276 3 2.476 5.85 3.602 7.949.45.9.15 1.95-.75 2.475l-4.428 2.4c-.224.15-.525.225-.825.225a1.75 1.75 0 01-1.575-.975l-6.603-12.374v41.77c-.225.45-.675.976-1.275.976zm-35.34-1.125h35.264V19.41c0-.225.15-.45.45-.525.226-.075.526.075.676.3l7.653 14.399c.15.225.375.375.6.375.075 0 .225 0 .3-.075l4.427-2.4c.3-.15.45-.6.3-.9-1.125-2.1-2.326-4.95-3.601-8.024-3.527-8.324-7.878-18.598-12.755-18.973l-6.753 11.698L33.67 29.76c-.075.15-.3.3-.525.3-.225 0-.376-.075-.526-.3l-8.328-14.549L17.54 3.513c-4.802.45-9.229 10.724-12.755 19.048-.826 2.025-1.651 3.9-2.476 5.624-.45.9-.826 1.725-1.2 2.4-.15.3-.076.75.3.9l4.426 2.4c.075.075.225.075.3.075.225 0 .45-.15.6-.375l7.653-14.399c.15-.225.375-.375.676-.3.225.075.45.3.45.525v43.946z" fill="#1771E6"/><path d="M39.522 4.937l-12.755-.225c-.225 0-.375-.075-.45-.3l-2.026-3.3c-.075-.15-.075-.374 0-.6.075-.15.3-.3.525-.3h16.957c.225 0 .375.076.525.3.075.15.075.376 0 .6l-2.176 3.45c-.225.3-.375.375-.6.375zM27.067 3.662l12.155.15 1.425-2.324h-14.93l1.35 2.174zM8.535 32.01c-.075 0-.15 0-.3-.075l-6.678-3.6c-.3-.15-.375-.525-.225-.75.15-.3.526-.375.75-.225l6.678 3.6c.3.15.375.525.225.75-.075.225-.225.3-.45.3z" fill="#1771E6"/><path d="M6.21 35.01c-.301 0-.601-.075-.826-.225l-4.427-2.4c-.9-.45-1.2-1.575-.75-2.475.375-.675.75-1.425 1.125-2.325a.585.585 0 01.3-.3c.15-.075.3 0 .45 0l6.678 3.6c.3.15.375.525.225.75L7.71 33.96c-.225.675-.826 1.05-1.5 1.05zm-4.127-6.375c-.3.675-.6 1.275-.9 1.875-.15.3-.076.75.3.9l4.426 2.4c.075.075.225.075.3.075.225 0 .45-.15.6-.375l.976-1.8-5.702-3.075zm58.072 6.375a1.75 1.75 0 01-1.575-.975l-1.276-2.325c-.075-.15-.075-.3-.075-.45.075-.15.15-.3.3-.3l6.678-3.6c.15-.075.3-.075.45 0 .15.075.3.15.3.3.375.9.825 1.65 1.126 2.325.45.9.15 1.95-.75 2.475l-4.428 2.4c-.225.074-.525.15-.75.15zm-1.575-3.3l.975 1.8c.15.225.375.375.6.375.075 0 .225 0 .3-.075l4.427-2.4c.3-.15.45-.6.3-.9-.3-.525-.6-1.2-.9-1.875L58.58 31.71z" fill="#1771E6"/></svg>