<svg width="56" height="64" fill="none" xmlns="http://www.w3.org/2000/svg"><path d="M2.21 60.173v-4.756h51.15v4.756H2.21zm49.621-1.53v-1.868H3.57v1.869h48.26z" fill="#1771E6"/><path d="M2.38 59.833v-4.246h50.64v4.246H2.38zm49.791-3.397H3.4v2.547h48.94v-2.547h-.17z" fill="#1771E6"/><path d="M.68 63.4v-4.756h54.21V63.4H.68zm52.68-1.359v-1.868H2.04v1.868h51.32z" fill="#1771E6"/><path d="M1.02 63.23v-4.246h53.53v4.246H1.02zm52.68-3.397H1.87v2.548H53.7v-2.548zM3.909 22.974L27.7 5.65l23.792 17.325H3.909zm43.164-1.529L27.87 7.347 8.667 21.445h38.406z" fill="#1771E6"/><path d="M50.642 22.634L27.7 5.988 4.928 22.634h45.714zm-2.72-.849H7.478L27.7 7.007l20.223 14.778z" fill="#1771E6"/><path d="M0 27.22v-6.794L27.7.213l27.7 20.213v6.795H0zm54.04-1.358v-4.586L27.7 2.082 1.36 21.276v4.586h52.68z" fill="#1771E6"/><path d="M27.7.722L.34 20.765v6.285h54.89v-6.285L27.7.723zm26.68 25.31H1.19v-4.927L27.87 1.742l26.68 19.363v4.926h-.17zM3.739 56.775V52.02H51.83v4.755H3.74zm46.563-1.358v-1.869H5.268v1.869h45.034z" fill="#1771E6"/><path d="M4.079 56.436V52.19h47.413v4.246H4.079zm46.563-3.227H4.928v2.547h45.714V53.21zM5.948 51.34V30.618h.34c.85 0 1.7-.68 2.039-1.529v-.17h1.02v.17c.17.85 1.02 1.529 2.039 1.529h.34V51.34H5.948zm4.588-1.189V30.448c-.68-.17-1.19-.85-1.7-1.359-.34.51-1.019 1.189-1.699 1.359V50.15h3.4z" fill="#1771E6"/><path d="M11.386 30.957c-1.02 0-2.04-.679-2.21-1.698h-.679c-.34 1.02-1.19 1.698-2.21 1.698-1.359 0-2.378-1.019-2.378-2.378 0-1.358 1.02-2.378 2.379-2.378h5.098c1.36 0 2.38 1.02 2.38 2.378 0 1.19-1.02 2.378-2.38 2.378zm0-3.906H6.288c-.85 0-1.53.68-1.53 1.529 0 .849.68 1.528 1.53 1.528s1.53-.68 1.53-1.529v-.17h2.209v.17c0 .85.68 1.53 1.529 1.53.85 0 1.53-.68 1.53-1.53-.17-.849-.85-1.528-1.7-1.528zm0 2.208c-.34 0-.68-.34-.68-.68s.34-.679.68-.679.68.34.68.68-.34.679-.68.679zm-5.098 0c-.34 0-.68-.34-.68-.68s.34-.679.68-.679.68.34.68.68-.34.679-.68.679zm-1.19 24.289v-3.397h7.308v3.397H5.098zm5.948-1.528v-.34H6.628v.34h4.418z" fill="#1771E6"/><path d="M12.236 53.209H5.608V50.49h6.628v2.718zm-1.02-.85V51.34H6.288v1.02h4.928zm7.307-1.019V30.618h.34c.85 0 1.7-.68 2.04-1.53v-.169h1.02v.17c.17.85 1.019 1.529 2.039 1.529h.34V51.34h-5.779zm4.589-1.189V29.938c-.68-.17-1.19-.68-1.7-1.189-.34.51-1.02 1.02-1.699 1.19V50.15h3.399z" fill="#1771E6"/><path d="M23.961 30.957c-1.02 0-2.039-.679-2.209-1.698h-.68c-.34 1.02-1.19 1.698-2.209 1.698-1.36 0-2.379-1.019-2.379-2.378 0-1.358 1.02-2.378 2.38-2.378h5.097c1.36 0 2.38 1.02 2.38 2.378 0 1.19-1.02 2.378-2.38 2.378zm0-3.906h-5.098c-.85 0-1.53.68-1.53 1.529 0 .849.68 1.528 1.53 1.528s1.53-.68 1.53-1.529v-.17h2.209v.17c0 .85.68 1.53 1.53 1.53.849 0 1.529-.68 1.529-1.53-.17-.849-.85-1.528-1.7-1.528zm0 2.208c-.34 0-.68-.34-.68-.68s.34-.679.68-.679.68.34.68.68c.17.34-.17.679-.68.679zm-5.098 0c-.34 0-.68-.34-.68-.68s.34-.679.68-.679.68.34.68.68-.34.679-.68.679zm-1.019 24.289v-3.397h7.307v3.397h-7.307zm5.777-1.528v-.34h-4.418v.34h4.419z" fill="#1771E6"/><path d="M24.811 53.209h-6.628V50.49h6.628v2.718zm-.85-.85V51.34h-4.928v1.02h4.928zm7.138-1.019V30.618h.34c.85 0 1.7-.68 2.039-1.53v-.169h1.02v.17c.17.85 1.02 1.529 2.039 1.529h.34V51.34h-5.778zm4.588-1.189V29.938c-.68-.17-1.19-.68-1.7-1.189-.34.51-1.019 1.02-1.699 1.19V50.15h3.4z" fill="#1771E6"/><path d="M36.707 30.957c-1.02 0-2.04-.679-2.21-1.698h-.68c-.34 1.02-1.189 1.698-2.209 1.698-1.359 0-2.379-1.019-2.379-2.378 0-1.358 1.02-2.378 2.38-2.378h5.098c1.36 0 2.379 1.02 2.379 2.378 0 1.19-1.19 2.378-2.38 2.378zm0-3.906h-5.099c-.85 0-1.529.68-1.529 1.529 0 .849.68 1.528 1.53 1.528s1.529-.68 1.529-1.529v-.17h2.21v.17c0 .85.679 1.53 1.529 1.53.85 0 1.53-.68 1.53-1.53-.17-.849-.85-1.528-1.7-1.528zm0 2.208c-.34 0-.68-.34-.68-.68s.34-.679.68-.679.68.34.68.68-.34.679-.68.679zm-5.268 0c-.34 0-.68-.34-.68-.68s.34-.679.68-.679.68.34.68.68-.17.679-.68.679zM30.42 53.548v-3.397h7.306v3.397H30.42zm5.777-1.528v-.34h-4.418v.34h4.418z" fill="#1771E6"/><path d="M37.386 53.209H30.76V50.49h6.627v2.718zm-.85-.85V51.34H31.61v1.02h4.928zm6.459 1.189v-3.397h7.307v3.397h-7.307zm5.778-1.528v-.34h-4.419v.34h4.419z" fill="#1771E6"/><path d="M49.962 53.209h-6.628V50.49h6.628v2.718zm-.85-.85V51.34h-4.928v1.02h4.928z" fill="#1771E6"/><path d="M43.844 51.34V30.618h.17c.85 0 1.7-.68 2.04-1.529v-.17h1.02v.17c.169.85 1.019 1.529 2.038 1.529h.34V51.34h-5.608zm4.589-1.189V30.618c-.68-.17-1.19-1.19-1.7-1.699-.34.51-1.02 1.529-1.7 1.699V50.15h3.4z" fill="#1771E6"/><path d="M49.282 30.957c-1.02 0-2.039-.679-2.209-1.698h-.68c-.34 1.02-1.19 1.698-2.209 1.698-1.36 0-2.38-1.019-2.38-2.378 0-1.358 1.02-2.378 2.38-2.378h5.098c1.36 0 2.38 1.02 2.38 2.378 0 1.19-1.02 2.378-2.38 2.378zm0-3.906h-5.098c-.85 0-1.53.68-1.53 1.529 0 .849.68 1.528 1.53 1.528s1.53-.68 1.53-1.529v-.17h2.209v.17c0 .85.68 1.53 1.53 1.53.849 0 1.529-.68 1.529-1.53-.17-.849-.85-1.528-1.7-1.528zm0 2.208c-.34 0-.68-.34-.68-.68s.34-.679.68-.679.68.34.68.68-.34.679-.68.679zm-5.268 0c-.34 0-.68-.34-.68-.68s.34-.679.68-.679.68.34.68.68c.17.34-.17.679-.68.679z" fill="#1771E6"/></svg>